<svg xmlns="http://www.w3.org/2000/svg" xmlns:xlink="http://www.w3.org/1999/xlink" viewBox="0 0 16 15.22"><defs><style>.cls-1{fill:url(#linear-gradient);}</style><linearGradient id="linear-gradient" x1="4.79" y1="17.99" x2="13.68" y2="2.61" gradientUnits="userSpaceOnUse"><stop offset="0" stop-color="#6767ff"/><stop offset="1" stop-color="#c1c1ff"/></linearGradient></defs><title>Asset 2</title><g id="Layer_2" data-name="Layer 2"><g id="svg2"><path id="path3159" class="cls-1" d="M8,0A3.93,3.93,0,0,0,3.94,3.81c0,.22,0,.54,0,.82-.39.16-.42.91-.09,1.68a2.56,2.56,0,0,0,.48.74c0,.22,0,.31.08.56a11.15,11.15,0,0,0,1.3,2.08,6.17,6.17,0,0,1,0,1.77C4.17,12.77.08,13.34.09,14.7L0,15.22H16l-.09-.52c0-1.16-4.1-1.88-5.66-3.24a8.14,8.14,0,0,1,0-1.56,15.13,15.13,0,0,0,1.34-2.29c.06-.25.08-.43.13-.65a2.53,2.53,0,0,0,.38-.65c.32-.73.3-1.43,0-1.64,0-.3,0-.61,0-.86A3.93,3.93,0,0,0,8,0Z"/></g></g></svg>