<svg xmlns="http://www.w3.org/2000/svg" xmlns:xlink="http://www.w3.org/1999/xlink" viewBox="0 0 103.87 41.81"><defs><style>.cls-1{fill:url(#linear-gradient);}.cls-2{fill:url(#linear-gradient-2);}.cls-3{fill:url(#linear-gradient-3);}</style><linearGradient id="linear-gradient" x1="22.44" y1="23.82" x2="32.01" y2="33.39" gradientUnits="userSpaceOnUse"><stop offset="0" stop-color="#ff7fa1" stop-opacity="0.5"/><stop offset="1" stop-color="#ff4d84"/></linearGradient><linearGradient id="linear-gradient-2" x1="1.98" y1="33.28" x2="11.56" y2="23.7" gradientUnits="userSpaceOnUse"><stop offset="0" stop-color="#8383ff"/><stop offset="1" stop-color="#b2b2ff" stop-opacity="0.7"/></linearGradient><linearGradient id="linear-gradient-3" x1="16.93" y1="20.03" x2="16.93" y2="6.48" gradientUnits="userSpaceOnUse"><stop offset="0" stop-color="#d7e9ff" stop-opacity="0.7"/><stop offset="1" stop-color="#78bcff"/></linearGradient></defs><title>Asset 7</title><g id="Layer_2" data-name="Layer 2"><g id="Layer_1-2" data-name="Layer 1"><path d="M56.42.58V33.73h13V41.4h-23V.58Z"/><path d="M89,41.81c-8.78,0-15.64-4.36-15.93-12.62H83.63a4.68,4.68,0,0,0,5.06,4.65c2.91,0,4.77-1.45,4.77-3.83,0-7.56-20.41-3.49-20.3-18,0-7.74,6.34-12,14.89-12,8.9,0,14.89,4.42,15.3,12.21H92.59C92.41,9.6,90.55,8,87.88,8c-2.39-.06-4.19,1.16-4.19,3.72,0,7.09,20.18,3.89,20.18,17.56C103.87,36.11,98.52,41.81,89,41.81Z"/><circle class="cls-1" cx="27.23" cy="28.6" r="6.77"/><circle class="cls-2" cx="6.77" cy="28.49" r="6.77"/><circle class="cls-3" cx="16.93" cy="13.26" r="6.77"/></g></g></svg>